<svg xmlns:xlink="http://www.w3.org/1999/xlink" class="w-[22px] h-[27px] lg:w-[24px] lg:h-[29px]  xl:w-[27px] xl:h-[32px]" viewBox="0 0 27 32" fill="none" xmlns="http://www.w3.org/2000/svg" width="27"  height="32" ><path d="M26.7545 16.3563C26.7545 17.0106 26.7633 17.6561 26.7633 18.3191C26.7022 19.6188 26.5103 20.9099 26.1352 22.1573C25.7426 23.492 25.1931 24.7569 24.4341 25.9258C23.5967 27.2082 22.5673 28.2899 21.3286 29.1971C20.2556 29.9822 19.0867 30.5579 17.8305 30.9767C16.2429 31.5001 14.6029 31.7181 12.9367 31.6571C11.8463 31.6135 10.7821 31.4564 9.73527 31.1686C8.87166 30.933 8.06038 30.5928 7.25784 30.2003C6.46401 29.8077 5.72252 29.3279 5.01593 28.7871C3.86445 27.8973 2.93105 26.8069 2.14595 25.5856C1.4568 24.5039 0.924676 23.3524 0.593189 22.1137C0.436168 21.5205 0.322764 20.9099 0.218084 20.308C0.0523402 19.3833 0.00872336 18.4412 0.00872336 17.4991L0 0.0872336C0 0.0174467 0.0348934 0 0.10468 0L26.0916 0.0261701C26.4143 0.0697869 26.6586 0.296594 26.7458 0.601912V16.3563H26.7545ZM3.91679 0.532125C3.91679 0.636805 3.91679 0.706592 3.91679 0.776379C3.91679 1.94531 3.92551 3.11424 3.91679 4.28317C3.91679 4.39657 3.95168 4.44019 4.06509 4.46636C4.94615 4.667 5.82721 4.85019 6.69954 5.09444C8.17379 5.51316 9.58697 6.08018 10.9565 6.7606C12.8844 7.72017 14.6727 8.8891 16.3214 10.2848C18.3191 11.9859 20.0463 13.9225 21.4769 16.1208C22.8552 18.2405 23.902 20.5086 24.6348 22.925C24.7656 23.3524 24.879 23.7886 25.0099 24.2248C25.0273 24.2161 25.036 24.2161 25.0448 24.2073C25.0709 24.1637 25.0884 24.1288 25.1058 24.0852C25.4548 23.2914 25.7514 22.4714 25.9607 21.6252C26.1701 20.7965 26.3358 19.959 26.3969 19.0954C26.4405 18.5197 26.4667 17.9527 26.4928 17.3769C26.5016 17.2723 26.4754 17.1589 26.4318 17.0716C25.9084 15.9899 25.3326 14.9344 24.6348 13.9399C24.1899 13.3118 23.7712 12.6576 23.2914 12.047C22.7331 11.3316 22.1399 10.6425 21.5293 9.9708C19.9067 8.19996 18.0922 6.63848 16.0859 5.3038C14.2801 4.09126 12.361 3.07935 10.3285 2.28552C8.58379 1.59638 6.7955 1.07297 4.95487 0.715316C4.61466 0.654252 4.27445 0.593189 3.91679 0.532125ZM20.5173 29.3628C20.7616 29.1884 20.9797 29.0401 21.2065 28.883C22.1399 28.2201 22.9424 27.4175 23.6403 26.5016C23.7014 26.4143 23.7188 26.3271 23.7014 26.2311C23.5443 25.5333 23.4135 24.8354 23.2303 24.1463C22.768 22.3841 22.1137 20.7005 21.2763 19.078C20.7878 18.1359 20.2382 17.2286 19.6188 16.365C18.9297 15.4142 18.2057 14.4982 17.4118 13.6346C16.304 12.4395 15.0827 11.3665 13.7655 10.407C12.3697 9.39506 10.8955 8.54889 9.32527 7.85103C7.91209 7.22294 6.44656 6.71699 4.93742 6.36805C4.59721 6.28954 4.26572 6.21976 3.91679 6.14125C3.90807 6.18486 3.90807 6.20231 3.90807 6.22848C3.90807 7.34507 3.90807 8.46166 3.90807 9.57825C3.90807 9.71782 3.93424 9.77016 4.08253 9.80506C5.18168 10.0668 6.24593 10.407 7.29273 10.8344C9.22059 11.6282 10.9914 12.6838 12.614 13.9923C14.2976 15.3618 15.7457 16.9408 16.9495 18.7552C18.415 20.9535 19.4444 23.3437 20.0201 25.9258C20.2033 26.7458 20.3429 27.5833 20.4301 28.4207C20.4563 28.7173 20.4825 29.0226 20.5173 29.3628ZM15.0042 31.2558C15.2397 31.2296 15.4578 31.2209 15.6759 31.1773C16.714 31.0028 17.7259 30.7237 18.6942 30.305C18.825 30.2439 18.8686 30.1741 18.8686 30.0345C18.8163 29.0662 18.7291 28.1067 18.5633 27.1471C18.2754 25.5246 17.7782 23.9718 17.1065 22.4714C16.6878 21.5293 16.208 20.622 15.6235 19.7671C14.8123 18.5633 13.8789 17.4554 12.8321 16.4348C11.9423 15.5712 10.9827 14.7948 9.94463 14.1144C8.14762 12.9367 6.19359 12.0819 4.11743 11.5236C4.05636 11.5061 3.98658 11.4974 3.91679 11.4799C3.90807 11.5148 3.90807 11.5323 3.90807 11.5497C3.90807 12.8233 3.90807 14.0882 3.90807 15.3618C3.90807 15.4491 3.94296 15.484 4.03019 15.5101C5.79231 16.0859 7.41486 16.932 8.88038 18.0748C10.7036 19.488 12.1516 21.2152 13.2159 23.2565C13.8352 24.4516 14.3063 25.699 14.6029 27.0075C14.821 27.9671 14.978 28.9354 14.9955 29.9211C15.0129 30.3573 15.0042 30.7935 15.0042 31.2558ZM26.4841 13.687C26.4841 13.6346 26.4928 13.591 26.4928 13.5561C26.4841 12.204 26.4754 10.8606 26.4667 9.50846C26.4667 8.89783 26.4667 8.28719 26.4667 7.67656C26.4667 7.51954 26.4231 7.38869 26.3097 7.27528C25.6816 6.60358 25.0709 5.91444 24.4167 5.25146C22.6284 3.437 20.6482 1.84935 18.5022 0.479785C18.3627 0.392551 18.2144 0.348934 18.0486 0.348934C17.028 0.348934 15.9986 0.348934 14.978 0.348934C13.4427 0.340211 11.8987 0.340211 10.3634 0.331488C10.2499 0.331488 10.1278 0.340211 10.0144 0.348934C16.9931 2.93977 22.4627 7.39741 26.4841 13.687ZM3.92551 17.2635C3.91679 17.2897 3.90807 17.2984 3.90807 17.3159C3.90807 18.3888 3.90807 19.4531 3.91679 20.5261C3.91679 20.561 3.95168 20.622 3.98658 20.6395C5.52189 21.3984 6.82167 22.4365 7.86847 23.7886C9.46485 25.8473 10.2499 28.1852 10.2499 30.7847C10.2499 30.9243 10.2936 30.9854 10.4244 31.0115C11.0612 31.1075 11.698 31.2209 12.3436 31.3081C12.6663 31.3518 12.9891 31.343 13.3118 31.3518C13.7306 25.4024 9.88357 19.3135 3.92551 17.2635ZM8.56634 30.4184C8.71464 29.5024 8.04294 27.1645 7.22294 25.7775C6.41167 24.408 5.3038 23.3263 3.91679 22.4888C3.91679 22.6022 3.91679 22.6982 3.91679 22.7854C3.91679 24.1724 3.92551 25.5682 3.90807 26.9552C3.90807 27.2518 3.98658 27.4524 4.20466 27.6618C5.39104 28.7958 6.74316 29.6681 8.2523 30.305C8.34826 30.366 8.45294 30.3835 8.56634 30.4184ZM26.4405 4.89381C26.4405 4.82402 26.4405 4.80657 26.4405 4.7804C26.4405 3.77722 26.4318 2.76531 26.4405 1.76212C26.4405 1.50914 26.4492 1.25616 26.4405 1.00319C26.4318 0.549572 26.2748 0.348934 25.8648 0.348934C24.3905 0.340211 22.9163 0.348934 21.442 0.348934C21.4071 0.348934 21.381 0.357658 21.3199 0.366381C23.1692 1.7185 24.8529 3.21892 26.4405 4.89381ZM3.89062 17.2199C3.89934 17.1501 3.89934 17.124 3.89934 17.0891C3.89934 16.6093 3.89062 16.1382 3.89934 15.6584C3.89934 15.5276 3.85573 15.484 3.74232 15.4491C2.66062 15.135 1.5702 14.9169 0.453615 14.8123C0.340211 14.8035 0.305318 14.8384 0.314041 14.9518C0.322764 15.4142 0.314041 15.8678 0.314041 16.3301C0.314041 16.3737 0.322764 16.4086 0.322764 16.4435C1.54403 16.5657 2.73041 16.7925 3.89062 17.2199ZM3.89062 11.445C3.89934 11.4102 3.90807 11.3927 3.90807 11.3753C3.90807 10.878 3.90807 10.3721 3.90807 9.87484C3.90807 9.77016 3.847 9.77016 3.77722 9.75272C2.67807 9.50846 1.5702 9.35144 0.453615 9.28166C0.348934 9.27293 0.314041 9.2991 0.314041 9.41251C0.322764 9.86612 0.322764 10.311 0.314041 10.7646C0.314041 10.8955 0.366381 10.9216 0.479785 10.9304C1.25616 11.0263 2.03254 11.1136 2.80892 11.227C3.16658 11.2706 3.52424 11.3665 3.89062 11.445ZM3.89062 6.10635C3.89934 6.08018 3.90807 6.06274 3.90807 6.04529C3.90807 5.54806 3.90807 5.05083 3.90807 4.56232C3.90807 4.46636 3.847 4.45764 3.77722 4.44019C2.66062 4.23083 1.54403 4.09998 0.418721 4.04764C0.340211 4.04764 0.314041 4.07381 0.314041 4.15232C0.314041 4.62338 0.314041 5.08572 0.314041 5.55678C0.314041 5.64401 0.348934 5.68763 0.436168 5.68763C0.567018 5.69635 0.706592 5.69635 0.837443 5.7138C1.62255 5.80103 2.39892 5.88827 3.18403 5.98423C3.41083 6.01912 3.64636 6.06274 3.89062 6.10635ZM3.90807 22.4627C3.90807 22.3493 3.90807 22.262 3.90807 22.1748C3.90807 21.7124 3.89934 21.2588 3.90807 20.7965C3.90807 20.6656 3.86445 20.6046 3.75104 20.561C2.73041 20.0899 1.66616 19.7933 0.549572 19.6363C0.453615 19.6188 0.409998 19.645 0.436168 19.7584C0.523402 20.2382 0.601912 20.718 0.671699 21.1978C0.689145 21.2937 0.724039 21.3286 0.819996 21.3461C1.73595 21.5031 2.60828 21.791 3.42828 22.2271C3.57658 22.2882 3.72487 22.3667 3.90807 22.4627Z" fill="#241C2D"></path></svg>